#format: frame checksums
#version: 1
#hash: MD5
#tb 0: 1001/30000
#stream#, dts,        pts, duration,     size, hash
0,          0,          0,        1,     1728, adf7e84a351847683f6a8dd177019e29
0,          1,          1,        1,     1728, 8227cf283a27277fbab3d7826e340337
0,          2,          2,        1,     1728, a5551b16db948e395537310d12128e76
0,          3,          3,        1,     1728, 4b57ed07dbc15de9ab6143656b2a7e8e
0,          4,          4,        1,     1728, a15489495f0acc41f446e9689e4142d6
0,          5,          5,        1,     1728, b0a0d5d3ff756e8ae19797455432755c
0,          6,          6,        1,     1728, 094a440243d36edcdd3e9d0d070de011
0,          7,          7,        1,     1728, a780bd61e1abbfbb28581784531608bd
0,          8,          8,        1,     1728, 55886a8c7aad65683aa9366a38382512
0,          9,          9,        1,     1728, 5ae5b24383f66720a62ed1001664051f
